<mxfile host="65bd71144e">
    <diagram id="HIP3nbAZw_EuaXWnEj3U" name="Page-1">
        <mxGraphModel dx="636" dy="623" grid="1" gridSize="10" guides="1" tooltips="1" connect="1" arrows="1" fold="1" page="1" pageScale="1" pageWidth="850" pageHeight="1100" math="0" shadow="0">
            <root>
                <mxCell id="0"/>
                <mxCell id="1" parent="0"/>
                <mxCell id="7" value="http://ics2o.mths.ca" style="swimlane;whiteSpace=wrap;html=1;" parent="1" vertex="1">
                    <mxGeometry x="40" y="40" width="760" height="480" as="geometry"/>
                </mxCell>
                <mxCell id="8" value="" style="rounded=1;whiteSpace=wrap;html=1;arcSize=15;" parent="7" vertex="1">
                    <mxGeometry x="90" y="260" width="150" height="20" as="geometry"/>
                </mxCell>
                <mxCell id="9" value="" style="rounded=1;whiteSpace=wrap;html=1;arcSize=20;" parent="7" vertex="1">
                    <mxGeometry x="90" y="300" width="150" height="20" as="geometry"/>
                </mxCell>
                <mxCell id="11" value="" style="rounded=1;whiteSpace=wrap;html=1;" parent="7" vertex="1">
                    <mxGeometry x="90" y="220" width="150" height="20" as="geometry"/>
                </mxCell>
                <mxCell id="12" value="" style="shape=image;verticalLabelPosition=bottom;labelBackgroundColor=default;verticalAlign=top;aspect=fixed;imageAspect=0;image=data:image/png,iVBORw0KGgoAAAANSUhEUgAAAT0AAADiCAYAAAA8hBDTAAAABGdBTUEAALGPC/xhBQAAACBjSFJNAAB6JgAAgIQAAPoAAACA6AAAdTAAAOpgAAA6mAAAF3CculE8AAAAUGVYSWZNTQAqAAAACAACARIAAwAAAAEAAQAAh2kABAAAAAEAAAAmAAAAAAADoAEAAwAAAAEAAQAAoAIABAAAAAEAAAE9oAMABAAAAAEAAADiAAAAAMcze9gAAAFZaVRYdFhNTDpjb20uYWRvYmUueG1wAAAAAAA8eDp4bXBtZXRhIHhtbG5zOng9ImFkb2JlOm5zOm1ldGEvIiB4OnhtcHRrPSJYTVAgQ29yZSA2LjAuMCI+CiAgIDxyZGY6UkRGIHhtbG5zOnJkZj0iaHR0cDovL3d3dy53My5vcmcvMTk5OS8wMi8yMi1yZGYtc3ludGF4LW5zIyI+CiAgICAgIDxyZGY6RGVzY3JpcHRpb24gcmRmOmFib3V0PSIiCiAgICAgICAgICAgIHhtbG5zOnRpZmY9Imh0dHA6Ly9ucy5hZG9iZS5jb20vdGlmZi8xLjAvIj4KICAgICAgICAgPHRpZmY6T3JpZW50YXRpb24+MTwvdGlmZjpPcmllbnRhdGlvbj4KICAgICAgPC9yZGY6RGVzY3JpcHRpb24+CiAgIDwvcmRmOlJERj4KPC94OnhtcG1ldGE+Chle4QcAAEAASURBVHgB7d0JwPXVnAfwf/ZJEcUwQimpyAxJpaIiyTKWUI2tRITsohg1RdllqSyVjBGTnRY1JJGdRClly1JoMGLGGPTO/Zze7+Pf7T7ve+9z7/M8dzm/9/0/53/Pfn7nd77/39nXWNGhplLlQOVA5cCMcOB6M1LOWszKgcqByoHCgQp6VRAqByoHZooDFfRmqrprYSsHKgcq6FUZqByoHJgpDlTQm6nqroWtHKgcqKBXZaByoHJgpjhQQW+mqrsWtnKgcqCCXpWByoHKgZniQAW9maruWtjKgcqBCnpVBioHKgdmigMV9GaqumthKwcqByroVRmoHKgcmCkOVNCbqequha0cqByooFdloHKgcmCmOFBBb6aquxa2cqByoIJelYHKgcqBmeJABb2Zqu5a2MqByoEKelUGKgcqB2aKAxX0Zqq6a2ErByoHKuhVGagcqByYKQ5U0Jup6q6FrRyoHKigV2WgcqByYKY4cIOZKm0t7NhwIDePXn311c0aa6wx98SeXaXKgcXgQNX0FoOrNc7VcgC4eQJuf/7znxsA2E0BwW77+rtyYKEcWKMjVPWy74Vyr4YbigNA7nrXu14D8JieSpUDi82BCnqLzeEaf08OpFsbx2h90fxiX83KgVFzoH5aR83RGl9fHAByf/nLX4rfq666qvnIRz7S/OpXv7pWF7d2QvpiZfU0IAcq6A3IsOp9NByg0enO/td//Vfz0Y9+tDn00EObk046qfnFL35RgC+A2J0aDbGCYTdX6u9BOFBBbxBuVb8j4wDAA2A/+clPmsMPP7y57LLLmpNPPrk5/fTTm8svv7y5/vWvXzTBgBzTk3Ajy0iNaOY4UEFv5qp8PAocAANu//M//9Pc7GY3a173utc1X/7yl5sPfOADzZ/+9KcCfPxFK/ROAxSmUuXAQjlQQW+hnKvhhuKALuqZZ57ZPPe5z21e8IIXFCB7ylOe0my++ebNH/7wh+aoo45qfv7znxfAA3aeG9zgBuV37d4OxfqZD1xBb+ZFYHkYQHv79a9/XTS7d77znc1vf/vb5sILL2xufetbN09+8pMLuB199NFzIAfoovUtT45rqtPCgQp601KTY1wOYBXtLKaxu29+85sNwHv605/erLnmmnPjdYDvoQ99aPO3f/u3zQtf+MIy2ZE1fMInjjEucs3aGHOggt4YV840ZA1A0eqy44JptvZLX/pSc4tb3KK58sorm6233rpoeMDxb/7mb0qxN9lkk+ZhD3tYs9566zXvec97yuRG+GG8r4JfuFHNQTlQQW9QjlX/C+KA8Tja2h//+Mfm05/+dJm82H777Rtr9G54wxuWcbyAY4Dy9re/fbPPPvs0v/nNb5rTTjutAKTE2xMZVetbUHXMdKAKejNd/YtfeEAWAlDnn39+s8466zSbbbZZs80225Tu69prr93c6EY3anbYYYcyeWHJCq2PRneb29ym2W+//ZqLLrqo+eQnP1ncM6Eh7nb8SaealQOr4kAFvVVxp7oNzYFoYkzP+973vtKt3XPPPQtg0fIsQ1l33XWbww47rIDbxz/+8ZIuIETG+F70oheVSY+s42uPExZP9U/lQJ8cqKDXJ6Oqt4VxgCYG7Jj/+7//W7qzxu3WWmutOXvdVSBmrR4/1u21Jy6EBXzHHHNM841vfKM58cQT5xYuLyxXNdQsc6CC3izX/ojLDrhQTGDnnSb3ve99r3ne857X7LLLLs3uu+9e/NHy4j/vAE73FXlH4vAuHuv6vL/+9a+f27KWNKJNMlHM8qP+qRxYyYEKelUURsYB2hmgiQmcvP/oRz8qW80e8pCHNJ5b3epWPdPkN2FNeCR8xvC43elOd2r22GOP5sY3vnHz1re+tcTDnoaIhPFUqhyYjwMV9ObjTLVfEAfa2pV3Wtj//d//lT22AMukRdtPO5H4BWJALeH5CZjxs8EGG5R1fLq8L37xi5v//M//bG5605vORZX4K/jNsaS+tDhQQa/FjPo6PAcCOMAJ6FxxxRVlXd5jHvOYMmurG8utFxnbe8QjHlF2anziE58o3Vn+ov0lbnaAj9+brnXTso6PNhmQa4NlO612eHFUmk0OVNCbzXpftFIHeJKA5SdnnXVWGcv7u7/7uwJk7XV28cc0ZvegBz2o+e///u/mU5/6VFnTF3smANPVZQLPO9zhDs3T9nta2bFxxhlnlOUs3IBkqJ2f9nvcqzl7HPirdMxe2WuJR8wBmhTgCvD87Gc/a77zne80d7vb3co2M8ldfPHF5RipXkkDJYAlvHiAo99Mbm1TWuxsVXvGM57RXHLJJc2pp57a/PKXvyxhhbPOrxvoxF01vl7cnx27CnqzU9eLXlJgku4rwDvllFOar3/962XW9ra3vW0BMyerfOtb3+qZF+E9mb0FUL0oQGZLG7KdzczwBRdc0Hz4wx8uGp9xxABogI4Zu17xVrvZ4EC9AnI26nlJSglQENCyCJlW50ABIAWELDZ+znOeM29eAB6/4mHS9mLXK1C6ukyLm9/4xjc2z3rWs8rExste9rISJADJBHqe+brXvdKodtPHgarpTV+dLluJAlL2ygIXM7VIN9NsbNwDRL0yyo22eJOb3KT5/e9/f53uaTuMNBIX/+Kn8Xl/1ateVdbx8d8NdoC00uxyoILe7Nb9yEtOg/rd735Xdk44CNRYGwJiiDstLt3SYtn6w83jMFFjdc7TWxXxC8ASJ3DbaKONmsc+9rEF+N7ylreUtAAjf22QXFW81W26OVBBb7rrd9FKFxCRQDQnmhZgc++FGVizq3G3lu6ggw5qzj333DkQLI5df4R3uoptaj/+8Y+v5SqdPIDME+DTxU13V7qPfvSjy2EF1vG5ZS3+k9dE3P079tWcXg5U0Jveul30kgESQJduKwByuc+GG27YPOABDyggxA9g0b0FRhYU07h6kXgCTgFQJsqOC+/8hOI/prTkQ1oPfvCDGxMoxx13XGNihYbJzfgiqoAXLs6WWUFvtup7ZKUNYNDMAI5u7Qc/+MHm+9//frPtttuWdXncgJZrHs8+++xmr732ajbeeON588B/mwKC0sqJK97nA01uQI27R1f3cY97XAFMM8kOLAV86W4HKNtp1vfp50AFvemv40UpIcBoAxDQe+lLX9rc6173au5zn/sU8AEwupxOTfnc5z5XwE+4+SgglzG/gJiJEGAWc1Wgl/j5F55m6Th6YPwf//Ef5QRmbpVmlwO19me37ocueQDG4QCWp2y66aZlzVy0LYCHHDAAENdff/0CRMCoF2VMjibm8FDr79yjEXClCXrv1ggTV9INILMXp/TduGbNoJ0btqyJZ758JL5qTicHKuhNZ70uSamABqChRb385S8vxz3d7373K13aACKtzHieM/QAEPu4dWeSphcgetSjHtU4Tl731EQE+4SL2R1eWtHi8h5t02zwm970prJD5Pjjjy/dX3Emve646u/p5UAFvemt2yUpmS6nMbtb3vKWc6AUTQw4AR1XPQKj1YFMwsm4sHnymwkY5+veBvCES1zRHtkJ9+xnP7u5+c1vXtbxOQwhcTK5J48Bw5jFY/0zFRyooDcV1bj0hQAiSLf2Xe96V1kU7ECBUECGFnjooYdeayxtPiABOgEr70CsDWTiFDZ2SauX2U6Df2DJvOMd71iWszil2TpAs8LSzLY1aSQdefBeabo4UEFvuupzyUoDRL74xS82xx57bPPIRz6y2XLLLUsXFti0gcJEwsMf/vCyTYzW1+3eneGAFSCShrgSDggZ74uf7rDt38kDvwAtXWtxGFt0r67lLLrl1hAmXu7CAMjE0Y63vk8+ByroTX4dLlsJLr300nK7mRlbXcY2GHkHGrq997///csOCUDiASy9KCDHzAOwAKC4PPHTK3wvO2Esd9ENR4nvdre7XTm23mTJCSecUE5+4Vf+5D357xVntZtsDlTQm+z6W7bcu8rRWXkmHJxaDMgCTEwUEKSpAa5oUd57UQAn7tbZ7brrruU8PuOCSNyJt1ccveykT9MDmGuuuWYJ77fJjac+9all94hb1uwkCagmjfkAulc61W4yOFBBbzLqaVlzSUsCAgEtmXF2naUfloI4WCBAxw+QYQbEshgY0LCL3+5Ctd0A31ZbbVVAyZihHRUJB5gGoXRtA6bSyWM5y/Of//yG1upeXekoqzQCfEmrmwexr+ZkcaCC3mTV15LnVkOPlgQodA8BBKKJATgE5DyIv5///OflBrQAVXHo40830AiSRcncxCf+YSnpADensrzwhS9sfvCDHzTu3LXnF0AGXPmNf2nnfdg81PDLw4HhpWd58l1TXSIOABlgFhAAeo5tAkSuYwQCZkCZASOm8/SOPPLIOe2s3+x2g2QABriKN0DUb3zz+QuQSY8mSuN75StfWYD6He94x5ymmjKFD9Fg54u32o8/ByrojX8dLXsOA0QA4PDDD2/ufve7l2OjACHwoCkBpQAUYHrCE55QdmHEbtBCJFzSbmubcRs0zrZ/ZRG3uACZ+BEgN+OsnI6eB+7cA/z8jCJ98VRaHg5U0Fsevk9Mqho70tABm8kLM7U0ozR+4AEA17jeNRMYfq+zzjplaUhAa9ACJ5w02tpWwGrQ+Lr9Kxdwlm8kPXZOZ3Fzm/LRVNklL+337vjq78nhQAW9yamrJctpwCyNHNCYPXUe3tZbb93ssMMOBSx0C4FGup6dRSUFSIAEzckjjn4p6QZkhLO0xGGk7373u8tYW/LUb5zz+VOmaKptk719v9YW2kuszE5naecpccpv8hy7ao4/ByrojX8dLXkOO015Lk3vgOaqq65qTjvttAJCJjDalK4hfwDQzK4rHP1eKCgkHI3xHve4R3PeeecV8AFKoyJA1v3IMxC0gNmZgHaZ2KtrpprfNtAFCJPXUeWrxrO4HBidBC1uPmvsS8iB661xjVgUQOhob3YsfP7zny8gcOc733neyYSAgr24Tk72G4AMQ+04dEeBErvFoABaQMzZf8YmHX1vHZ9ZXXlYrPQXo0w1zutyoILedXky0zbdDR+AnXPOOeWY9wMPPLB0+VbV6AHDLrvsUrZ50cqARL/UK97kJ93RDgYvWHtcXT6i5fEnL37bsWEtouUsLi3/xS9+ca1okucA5bUc64+x5EAFvbGsluXJVHfD1aAvuuii5qSTTipXNxrrWpXmxn/uutXlFd+q/HeXsjt97gEV3WYgFC20O+wofksreWD6bQubXRzW8eGF8l122WUlL0mTv+QzdtUcXw5U0BvfulnynKXBSzjvTj3WvbOHlra1qsYNlA444IBmt912K3kfxfhbwCcHAgC/VeVhGKZJyz/xe5d/prQBvvWJFma7ZQ1xqzR5HKigN3l1tmg5boOJ94997GPlsu5DDjmknJIi4TYYALk87IU56qijyrHs/MbN+zBkBvewww5r3vCGN5TJFMC3GEQrjSYZwA5PlM/jPD7HUx3aOS7LljVllJ+MN8pXuvQJsxh5rXEunAMV9BbOu6kMqaFmQa7xK8s17nSnOxWtJ5peQCeAgBHePe6c/Yd/+Ie5rWMBgIUyS5y5Se2HP/xh4yLxdroLjbffcFevuGY9H/9A0Wyuo7Ss5wPCNOFeS3OAYXjSb1rV39JwoILe0vB5IlJJQ9Wd+8hHPlJOHbFOzR20AC9gl/E6jTphHOlu3ItpYa+xMP6znGWhDADCgDOa1yBjhAtNsx2O5heNjSkfgO+BD3xgc5e73KWcx+fDkA8Cfnj3eK80fhyooDd+dbJsOQJiaeAXXHBBOQZ+5513LoeDAh6AE6BLo46WAyg32WSTsiVNAQJ4/A9D8pN8iSfgMkycg4QFXModcLf3WB50uR1Eaj2fvbqOpUJlV8pwRR4ke9XvAjhQQW8BTJvWIABG1/bszh21Gvo973nPOY1FQ+cWEAKCwIgd05l6zqbbfPPNC3sCFPwPQwE5aXgHpsPGOUh+pCk95VFm+4zz23l8T3ziE8uaxLlZ3b90tLtOkfkBgFXbG4TbS+O3gt7S8HnsUtEYPemyusZRA7fzwQTGhhtu2DzpSU8q+dbguemyAh+PRp3G3+5+8heAyvuwhRcfjfLe97536T6bQFhKUn55iKlceMc0q+3IeeON7tU988wzm0suueSayYyVeG+hNgqvKxAuZe1dN60KetflyUzZaMgaockCwHfcccc1f//3f1+OUg+w9WJIAA3gZYyvl79h7SwhkT8X+ZjB/d73vtd86EMfGjbakYQHhPKGhxZuW5jtsqH3v//9ZTEzfiLXXwI8/mjGeFdp+ThQub98vF/WlDVYT+mGrTQ1RrORSEPlPl8D5YbaExXiGjV1clmiBBhOd3F2XzSmUac1SHz4orxMvLBzg8anm+vdaczhpXjzcYk5SFrV72g5UEFvtPycqNgCeLQVJx3vueeeZWGxE0YCYNx6UdxpLmZs+QsQ9vK/ULukA1yiVUpzuSm8ky+PiRyAJo977bVXs8cee5TLz3/6058WO/YIj1Km5S7DrKZfQW9Ga17jA1RpgIDEHbYG59ddd93CFX7mA5iE+/a3v90cccQR8x6/NCx75QGYSA+w5JTmYeMdNrz8mMnFnwA+8NOltWRn9913b7bYYovm4IMPnjsdRhiPMlVaPg5U0Fs+3i9ryhof0gDtJbW1ysb6zTbbrNingRrr60VpuLe//e3L0g2zt4tF0TaZJlOS925zsdLvFa/y443ufUBZfgwLyKdZXst9rOezfe073/nOXFdY2PC32+yVVrUbLQcq6I2WnxMTWwbWL7zwwubDH/5wWXfmOkcghjTMAFuvQsV9vfXWa+53v/uVG9F6+RvWDihIC5DQpB7xiEeUMT15plWl2zhsOoOGD2/Ch/bvdHlpfIYKHFHlLMJvfetbJe/8ynfKJu32+6B5qf4H40AFvcH4NTW+M+N6xRVXNJ/5zGfKeF4u7G43QO/zESDSgGk6i0VtMJEX2pMlIK5rDBBK2/s4UPgV0/WYT3va00rX/NOf/nTR+ABeJoDGJd/jwLulykMFvaXi9BimA/AMtN/1rnctXTUaCpAJ0MhyGm939vmJf27tMN1+h/0NJBK//EgXaNBW2cdu2HSGDS8vyWfMlZPPZeG2i4YA33e/+905kLaA2bigMlVaGg5UTi8Nn8cuFRqGBmjN27Oe9azSPQUeHm5MDXe+xhi/MRezgNEkpQXsgETyF00peV7MfPQTt3wlT4V/nb27JmCMeb7sZS8rY34nn3xyOaLKRMiKq6+ZoFkKPvaT/1nwU0FvFmq5RxkBye9///viYvAdmGikATpmuwF3R8EdJUxptPZfLQKJOwRQTCAE5JJ+WxuM36U2k8/uD4Xf8gv4dHVdMfmc5zznWuv4Uo6lzvMspldBbwZqPYPmGp7nt7/9bXPssceWpRSORzKWFxBps0ND1GALoK0Envhjl/jET/vqQGY7+MjepRVQYAI92pPFv35zzxjZyBJdQETJYzuovAWQvXscTbXPPvs0r371q8tBBbrp4Su/WXzNrtLoOVBBb/Q8HasYNbIAF0wyCQDojC9ZRGtmMXtq58u4ODTo0h1b+R6wEYbWCIT4WwwSv3PtbEkDeHvvvXc54+/tb397SVNeAuyLkf4wcbaBUD0AtNve9rbNrrvu2myzzTbNP//zP5ePjzS44WG688JW4BuG+73DVtDrzZepsQ04FUDqYJJG5MhzQOdwUMSNPb/dxI09TQ6wabgAJtpLu2H2Ct8d36C/pS8t59p55BNo6Cra5F/K1YlUvhYj/UHz2+0//GPvPV1ze4m33377so7P4m5Lh5QBKYcPTN7LS/0zMg7cYGQx1YjGkgPRFDQkmoS9oRtssEGz0047zQGG9W4aY7uBdhcG4AE+jwkQB4tut912BZCyYJgmNuournzLF03v6s6xTbqxAQd3dyDu8qUM40bJPxPlY+Ed8DmTz9jqJz7xiVKGu9/97nM8VXfKFs1PmErDc6BqesPzcKxjiAYUYHAislNUHNOkIXoA2nyaHnduGqvGJz734LoaMmG5oVEDnjjlu5ShEzvT7zxtkFOGcSX8kWd8TH3gnY+Fj8eTn/zkYjqaygJmflIf3iuNlgOVo6Pl57LGloZVzI5mhLwj2pyz8hx1bheFxpQZW2A2nzYhvAYa9+9///vNgx70oDIYD2jixlwMEm+AIiY7T8rLPuVcjDwMG2e0UzxM3hNn6sHEBqCj8dkDjVI++429Z8yPv0oL50AFvYXzbuxClgbVWexqwiJ3O7C76qqrmq985SvNCSecUDbC65YOSmmAp556auOQgeUmByM4wBNA5BCCcQa+XvySX/WDjFHuv//+5cCHf//3fy/nBmZcj0YbTZsJKCstnAOVewvn3diFLI2eYtd52gAApJ73vOeVEz/ue9/7zt1j0U8B0iiN12lszol7wAMe0E/QRfXzkIc8pGxJs1/Y0VZtAFnUhEcUOb7iJzN1tc466zT77bdf2Qft6H1jfXGnJaZ7XDW94Sqhgt5w/Bur0BqDRuIJGeynMdCK0nAM+g9CBVCojx16/etfXyYyBgm/GH4BBq2nXdbFSGex4gxwMdPtVR6PQwqe+cxnNq95zWsawwm6teyR8ibsYuVt2uOtoDdFNQwIAFQeOEXL++AHP1i2QN3mNrcp2oVG1i+lgQVM//Ef/7HZdNNN+w2+aP6SH5MBAEE+ozEtWqIjjDh1pY6S7wC5HRuOpDLZZDmLNZXKm3rlr9LCOVC5t3DejV3Ibi3AbKo7Wd0r4QJuABGw6DfzGhiQNGPrHgia4+3Wv12/wRfNn3IgWqv8yWfsFi3REUcMxIy9pk6YAXFdXcuKdtlllwJ8Pl7Xu/41zTUgKTt5DyCOOItTGV1dpzdF1UrbSQMCBl//+tfL8/jHP76M4wGHNI5BAEIYjdFiZkclGTNc2dtdNu7R7rJMxfskaj+98ty2MyRhHd8vfvGLMqSgm+vjZTbYe1tjV0ftsMtWMROQcNX0JqCS+s1iAA/4nX/++eWcPLOCBvuz+HghjQOoiMfg+kYbbTQWGpVyuHCbNnTOOefMTWb0y6tx9KdMoQwr+MgccMAB5aPz2c9+tqzji3ZrckndoHbYxFHN3hyooNebLxNpS/BpAMDP8UU0BLO2WU/HXiNJg+q3kDQIz6Dh+o1/If5oOXe7293KbLJrF3/yk59MfMNXPwGvttbGft999y1LjywZuuiiiwrLDF/wFxBcCB9nMUwFvSmsdXtrAR1NSCOi5QFD1G5M/RRdeOvg3PEAMNMo+wm72H7S4KUDGDzTQOFxQJCpDl/ykpc0JqMclQ/4Uqe6uwkzDeVf7DJU0FtsDi9h/BqH45Ze9KIXlV0XL3zhC8u4j8aRhuGk3kHAgV9bo57xjGeUU5YzLri6Yi12IxS/vHmUDQ1SrtXlf7ncU6bwD7CzY/qQGWLwMXv6059etgLmQxT/y5XvSUq3TmRMUm218krIdTfTKAi/x1l5NrLTDBB/AQW/dYnmI357NR6b4N/2treVS4O4zwcuJWwn+r/8+ZqJhXSH7QgxNiWvCe99WBJXezBffOFJ0hk2jeUK3+Zx4WsnI+zU8cMe9rByobhb1hxKaoIpbkw8YEY2lqsM45ru8JI3riWb8nxpCGnY9tVmK5arHHfYYYfGejqC7xmUEq9wGhkNw9WQWfLCbj7KSSjcjTW5D+LQQw8tEw3s5GdV4fnph8STfKaR+x1gTRzspoFSVrzTxbWUxc4Y6/guv/zywouM5/oQePBlWso/yjqsoDdKbi5xXASboAMl3VpjPmZXHQjgKkcCT/AHoYBJGguTppgGla5yrzj5TXjuDjjQ1f785z/f/O53v5trgG3Ns1c8fdl1sBzA2YOrq/fe97637F5IvsWR/PQV35h6apdHFn141Clt/p73vGcBvyOPPLL55je/WeoJKOajoi48la7NgQp61+bHxPyKcAeQnIgMXDbccMNm/fXXnwO7QUBPAwFqwMSDNDJaJDdxBWh7MUqY+ONuga3xpzXXXHMOgMQh792NuVd8q7LTTZee+z0cxvm1r32tzFZL3zMtlPLgu3faM8JHgL/bbruVo8LOOOOMcqhE/PPjPQDod6VrOFBBb0IlQSPwEH67JaxVs23pjne8YxH2ABA//RIg4l9Y4KdrqjFpPIi99JjzkUYW97vc5S5l4B0wA07LLd7znveUHSKJc754VmcvH/Iov+Ki7bJTBuY0kXKmbHipvHiM17e4xS3KIQU+MNbx0a75DdilLqaJH8OWpU5kDMvBZQpPmB0kQBOzfMFYniOJcgS8bA0KLPwDjYCf49idkrz11lvPncyiQc0HpG03cfnNpIV+4QtfKHE5fNSpKECKRir/CwEqYZA0aD+e2DHT2L0PyocS8Rj9watuShlTZgeRmmxyMjb/DopFwM+TbjG+4FWvOLvTmNbf83+yp7XEU1Iujd1X/ze/+U3z61//urnzne88B0wLLWJAKg1pxx13LAcVGD8KqACQAEqvdLgHaLyLU/5ojO59Pe6445qf/exnzbve9a4SnLv4kmavOHvZKbtwHg1Yo0bt+GhIkw54vcoeu/DZb7P1gO8Od7hD89GPfrScM2iCK/xRf3gDAPFulqmC3oTWPmEmxF/60peak046qXnTm95UTkUetjiAQmPy3OQmN2luvs7Ny3s0Aw3GfRU9aeVQWvLGpBVqiJZXbLHFFs2tbnWr0i11Vpy0EI1Vox0UoDRkaWjI8iuP6e6KN/nwPq3U5pmPE+BzOvbenRvjaNVkxIM3+VBMKy/6LVcFvX45NWb+CLKV+Tk2yt21Gv4wpAGl60pLcKJKJgzEC1wQu17EPnkI4IjTO3tPtK+kIx5amvSUqV9KQxanyZJDO8ti3vzmN5fj1gOCbUDoN95J8hfAZyK88CF49KMf3bz4xS8u5/E5YQfP8SQnMfM3y1RBb0Jrn6D//Oc/L2etGcfzFR+2kWsMHoBkfBCIABcNRsORRvzMxzZ5SBjvwCxgKSyNg4naWln7fb642/bKL35xyRce/PjHPy6TOvyxH5Yf7fTG7T1lCw/ww4PXJjd23nnncludC8Wdx4fwnjt/s0yzXfoJqXkNOECRd11awvzc5z53bknIsMXRgDQIoGUg3OJXdkDFE5qv0bQbondd71e84hXlnt1XvvKVBaRd0P2pT32qjPF550+ZpDkI8S+cvHjE45FPv8MndtNIyodSFymvYQLARvMHfOrw8MMPL+v48MzHpT08kXgSfhp51V2mv0pyt0v9PRYciFDqmvhSp0GbDXXc04477niNIA8IGr0KByB0aU8//fRm3XXXbbbaaqu5RsW/vKwORDQsedTw5Pde97pXWUpD+2CvK/pP//RPRQO0vAZpiChlLT9W8yd8kE5pyJ10pU2zFA/w09WTh2mkdj2035U1/LSMxV0iJrtcL4kvW265ZRmeoLnzx678u/q6W/qmkW/KVEFvQmo2SzuA3+c+97lyoIAuXQCmW/AXUqwAlnV/4sv+3cTVbxqJ5x73uEdpZKVhaVyd55GPfGS5kc07Alp57zd+4dphpGeRsgM3Dd47IMF+4TR+/meBunmCnyY3HBZxzDHHNGeddVZhg4NIwxthrn+96zedhS2zwKJSxtq9HfOqJrieCPRXv/rVxoXdm2yySfOEJzyhfKUVgVYzLAFQabkxjUYATFDSXl38tAdxBPQ0LO9OdkG0r5Ql5WLHT9JaXRptd/lKeg40MHj/gx/8oGiq8tJvvttxTvJ7eKoM+FI0uJUfl6c85SllXNa9uhdccMFcMVNHAcE5hyl+qaA35pWr4QYQnKBy7LHHFlCiMXFb0emWEPasUxu2ODQvOyfOPffcuajE3w/FH1M88q0xJY/suJV8r2yMKdtCGl3iSlgNnSYM8DIU4H2WCD89eJz7N8p7hzfPec5zmg022KCs47Og3YeS3wKQZGllnUw7vyrojXkNa9jR4jRgY1bWz3m4EVimZ1jSAICn05b32GOP5vo3uOZAg37jLQDXaTjJDzOgoww0PtoHe/mWXvd7v2kVLaYTFyogKuZO2vKQfHCTzqyQ8oefzPxW/hvc8AZFZvburN/beOONG/emWDReeNcJlw9SN6+4TxvNjkRMQM1FwJjAIl9sXcArrrii3JXwmMc8phwdRajbzyiKB5he+9rXlrGf0hg6WuSgoJFGFzCWd+/GB2ke5VkJRMCJf+VsA1U/ZUlcc+l14s7yQQ1Y/gOq/cQ3DX4iDymL36jIVQe7Ik+77rprc2hnXaPTWS655JIia6lnMlDqfhVAmPgn1aygN0Y1R3tBaciEL4JLw9MlcSeq5QihItD5MaQJmHSbDXQn7TSGIaNemuAd9vlY0Faj8YV/S5OB8UwlPMATZFfMjjvu2AC/o446qvnRj35UPkwAj59o5xNV9wOwvoLeAMxabK8d3e1aGgqh83X2NX7rW99axmTuete7XisbEehrWS7wBw3JySiWq0Tg2Y2KRgnQvfIkr/t2LtCx7MYeXx8K/Jt1IiN4w8z72jdbu7nPfe5T1vK94Q1vaEyQATz8op2rqzzTxr8KemNUo720q4svvrgMPG/QGYCmha273rojaci9AIjQs/elB3qezLyOgk2jBOhe+Td54YY0GstXvvKVxv7egHfy3ytc3Po1RxHHUqWVvKZupVvA7S9XN2uttVZZx2chunV81n6qI8DnKfXf+T1tVEFvjGq0VwN1C5kDMi1PKd3aThfOl3hY6gVAaSD50tMOjJ0tNiXdQdLplX9gbb2e/HvXXe/W9HqFGyRdfkcRR79pDpuW8OFv4orWB/wc8LrffvuVrWvWf/pY8M8NJWy/+Z0Ef4sv0ZPAhTHKoyUXGiphc5errWa0lzYgdjfkhWRf/J6M3xTh7nzU0yDEKU2/44edtJM+N+GS3+S9ezC8pLVydjVh2HlHxuB0RdvhSpiOn3RR4zf2yUd+c5dfv1HyGHdbrzzKwi7h46+k03HnlrT4jb8SaedP4gtP5Bk5rh91l0Fc7TDy0P6deGLy72n/Th7xN2GTLya7hPEuD3H3Duy4h/wOr5ieffbZpyxkdoiFK0STZsaZE3YazOt3ZnEOnYaCTEMZCCYtJYL8/ve/v/niF7/YuMrR4HNbWPPVHrbc4tENJOg3W/tm5ZpH+XCDmZ0ZGsRPf/rTojXpasufS8QdDKph2uRPuyrhO6v/L7vssuInh4Xy7zBSWpcTP2gQ4hW/dHIKiMNKH/zgBxfw0FCNy1155ZUl7u9///slPFN+HUJquQV/4rZ8x2A801l9ttFxN/55y1vesqRx4xvduPnxZT8u7JI3eUDC03aUUdzsARgQlL78y6Ous7K2eaOefJiEl67fypWlIOyU2wnUwpuBd1McfrvMJ/kWHt9QwvMvb7Yahu/y4wRqj3TxkqmbqvwAL/XmQ8JO3NJXDuHdVaLepKfe8FR4ZbOURflPPPHEsveavXxMG1XQG7MazZdXthz/TSitmSPEiMAS9mFBT+MVD/PCCy9s9t9//+Z+97tfOehTOp/85Cebz3zmMwU0DjrooKJtPu5xj2s26IwtOgAUEGhwzsljd+CBB5ZBcZvbNXrdJIdZOtyUmwmSJz7xieXCImBu4Nxia4BuU7wxJRcaORUEqMqTk14A1zOf+cxm0003LdupgP9pp51WDi2Qf1us3JHhAiIasdlIjVZDB2Tbbbfd3OGaL3/5ywsw+ZDY1aLRi9sOFHm0re/4449vvvGNbxRQt3XLeJe7ZpXREg+AaJubNOTFFYw77rhjc2hHd7C/+OSTTy7bBNWXm8pc3uOMO/uMnVoDVICYReZuNRO3WdSDDz64gKCF4WeffXa5MvOQQw4pZdq7s7bORU/yZscJgHrd615XePvsZz+71JsDHXyI8PXjH/94OcPQYmRbAdWbM/Y+8IEPlLIBP+ltvvnmxdx2221LXpUNoL7jHe8odb/77rsXuQOY00RrdL4O1/QHpqlUE1oWVUFboAmccMIJRYj33HPP0mACdMCOv2FBTzpIXAQduNraBijs1wSutC1LZBxhxQRyTI1DfjRsjdghoTQHN7HRbjR+WhitwgED3BwNz3SZjfDAnRYEIP22hUxDptnQMLjTWoQHsBtuuGHRXKQvv/INtOQNoDCBiM313ml7lvgEoIVP/mlxuorKyS9Ao3nJm/zQwDR0cSkbLVY+lNV2N7wHMDb0C8+PYQhaJS2Su/FX4AJsaGzKT0OleeEdwMcndsJLX3zKhvfe2XFTN0BPfvAM3+VTfn0glD98x3PpKxs3+RZePNKUtjwoi/Dyz498kImPfexjzde//vXyEXDtJ/+eaaIKemNUmwE8GoVlI+6uBURt4odQexZCAUymBwGYEM1PGro18cMk+Oz55YfJnsne09YIEnfyCQTjl127IdF8DjjggHLoJc2oTdISF1P87TT9budJnABDOu973/sK8P3bv/1b8ZN8MIVB/EVzZrbLzD1hpJnyhA9xZx9/7PI7dt3xJ21+pV/i7VSl5Uoo+ffOjR9xKT9KvN7jnve4xWQf/jA94Zn4lCVx+PD4QNAiaeS05mmlv0r7tJZwjMtF4PLIJmGlgeg++ZrrbnFHMTWChVAam3i8G7B2Jh8yWB1w0RAyjsOv9NgV6rTL2Pktv+Jq+2k3zrgLI07xaHSJjzs3lHDe2cU+cdNwhEv5vQvjN7/5besc+2iD+CmdPNzyLpz8oABe3MSb98TPLuGTj5ji4E+YEN6krL3i57+E6QAevx75EYd4Pd6TfuKKfTvtvMe/MOLzG5AyE17+vPOTcG6pownq0tLwfKRKnjoTL9NG09VZn6Da0XhQWyh1u4zHGIdxA1m+yvx4Qu332PVjRuvgVxdH95AdgO1Og580CO+o1/KV5CVmu2GVMJ2G26b4i5000vjixmTniV3e23lKWvHjN74CGA1W2cJDbuwSPmHkI+/dZvLYTifvqwonryhpeU/+vYeklzTbfmPXbQoXf3FLXMzYdZvXu/41PGYfniSPhhCMseqW77TTTuXsQ3ElneLvr6LHaeLp2hI58cWZnAIQqjQgjVTjNIZGA9thhx3K4ZsRzO5S0cwGocQjPe+eBz7wgWUAPaAwSHxtv4m7bTfoexrpqsL14wfg4auGTTNM3lLufuJYVR76deuVTi+7fuMb1t/cx6oDXnhRNLjOB8DYsQmr888/vwDeNttuMycf0pTngN+weRin8BX0lqk2NEjCFwJ4zjkz4Gwgn3DqmvUSuoz/JOzqTGmJh5nGF+EXNnbt/KwuzrgnbH4PYwakFhqHMsqPx0SCAXoLu41Xtcu+0PhXFy75j7k6/73ce4XtZdcr7KrsSj11vpWJi7w5th/oveQlLyk9C3LFPbIivvhfVdyT5lZBb5lrjDDqYlhGYfDdzgsHeNJadDvTDR4mm2b0zGTqPiNpihfwlcbQsYuwFw/L9Cd5GSZ5Wp5GS5OlMVvSYaaTnTKPIo358pe4Y87nb1X2vcL2sltVHN1ueFLmSVZ2U/Ej284s9TGLG3CTlo8fU48i9t1xTvLvCnrLWHsRZmvanGFn7ZQ1U7qcxmFoeoCpX5pPQE2M7N1Z62V5AoEOMCR9wj1IOv3mZ6n9KRve4YNlJ4DOWBXipoyj+IgsdbmGTQ9PjIhc3dlvi2h3Vgj4IFirZ3glfLHXupx72OEh/3g4bVQnMpapRjVMoAPYzDRaV1WEs5OfmMalBiHgVf4T2E4jj8A6Kuqd73xnc9vb3rak2dbwxD9od3mQPC2l35Q3aeZ3PgZ4EqCPn2kyUz7lLfIFwFZ2WZXT2kITZfZzWwdKw4vGz73Nm1EeNCHucaIKestUGxokwdStPfPMM8tOBCv8h6EMWAdMdY+lYZZ2iy22KMsQku4w6Yxz2DTi7LMF8DRbPGlre9Og2XbXg7q11MRHM+X9y9XXzGYbw/vXf/3XsojZDhELyfNRwB9ykt/d8U7b7+nTXSekhtKdsGre4/auQTW77qJq1OJlnnLKKWUpAuEn0CjdGO7TSnMg19FwUl4gkEaNP9PauNWrsqZ+1b1HmS08tqPjsY99bJksix9uwuDVrFAFvWWqaQ3PWJ7dCPac2n5FOxmEAmYJI07C7DF76WFHoHWj+QcK06jl4AEtB2nEyPYsx+vr0tkSFhDo5lvxPEV/Uk5FouEdffTRpWvrDlwf10yQRR7yoZwiFqyyKLV7u0r2LJ4jwDODtt566zV77bVXSSjd035TJdxtAnYBtPvf//7FiR3hTldXV4af7rDteCb1XRmVFwF7W6l07XXnbG/DazSNZVcuZQZg6tcHwKoAQycOX7C1zNguIg8+hAH/NkgWD1P+p2p6S1DBgIYweggagbQnlP3Tn/70MtO4kGyIR5zIQtNvf/vbxSTE0tEIvAfk/KYFTWujxwdl9OSdScuN9heeFA8T/icfNHUdOVA+9pYnudzbSTlOkLn3ve99rXoPn8jCNPGknyqtoNcPl0bgJ8CjATr1ggZC8yBwhDZA1W9ShFycwvqiW4SrG+NEEsQNqFb6a3e3DQ6Tzhf1H9lpyw97y3RoeI6ZsizFrD0gJGN5Jr38w+S/dm+H4V6fYWkZ0TZoZM9//vPLON6znvWsslzFmjJEIPslAu9rLqzz3wi389IcBBkAjXbTb5zT6A+fgD+e4AeACN8mubw+akj5QtH8nGPo7D2mD6seQT6Q8TvLZgW9Jah9X99MJjjJgqCaZNAANcR8tQcBPQKe/aXGauzmcOYa4eaGogEMEu8SsGNJk1B2vDagD+zUg7G/SSd1G4oWZ7udwwOcW+gg0MjYDW90zeLjthy03xPPrJgV9BappgM4FgwDOb81PFc5utVs5513LvZxC/D1k525uDtxEl4HTlrcjLh50r2NRtBPvNPoR9fObhenMOOR9YqTRqnv+fJNhvQg3va2t5V9xjnhGsADeh/HyAGt1/Fbs0x/1Y1nmQsjLDsBRfmSrrj6mt0RTqZ1MrBDQR0PTitD/PtSE8qELQ49/nAHjuLWlXU0Obt035JmAK92b5vS/Xfku7uDjX0iIDFJpF7Vc57kPRq97ut73/veMoTy0Ic+tAxxGPYgKxk6SVgyYZfGLNNk1f6Y11S6GQTMO1MDA0IWhp5xxhllFs3R4SECzZ0Z0IpbzExIiDOaoXV9OZadIKcBJI4AXn4nrlkzlR//skQDEKiXSSL5VQ6P/KeuyY1j360EcMy/j6nDKiIj3PlNWGalzsRWZcLoOBChIpgODIhwuuvg3HPPLRe4ACvuBLJfAmABUGH93m233UpwaaYRJ/1+450Vf/iCb/iUj8GklD11S5a8R278dlqKW+TM3D/lKU8p6/AicynfpGm1yfdimhX0RshdjYvQRTD1IgidU05e85rXlGUEzngbRBCNCTrtQqO1UXyDDTYo5+0FCNOgk/YgcY+w6GMfFX6FV3jkfZJIfj0BQYD35S9/uZyY8rKXvazspVUe7spHDietjEtVH7V7O0JOE7gIGpDybvuTrq17B3Sx2KW72lfSnZ5Y4nFSiluvItTCJx12nkrX5QC+O5zVbWhmzydpSEvdB+hSMl1aPQda3ktf+tKy3a6t4cW/sINubUwa02xWTW/EtRvhiyZmHM91hAaas8SEMPZL/Hpcb/jWo9/amBhJeICX7lqEe9CtbP3mYyn8pbHOpdU/m+aC9HqxVs19vK7TNMvprtlJAb7wJHWufPYSk6cPfvCD5dpJcqB3wW/85cNYP4TXlYgKetflyYJt2lqXxcgGmC0cthjZLFoEeK7725VS3FmXpS5rXNNNIbgJ0z7nLIDH/6SBHV6lYWqo4V26ZXihTO2GrJwLIXwSvyfgsJB4FjtMPpj4UcrfqffIBDfn4Vl645rGt7zlLeUOXmVK+SIjyWcFvHDi2mYFvWvzY6hfhE/XNd1XXVFHtVumQmgjlN7nE8gIuYxEexsqU2MaWPmzM0Ij1wXVgFEafdlJ0FlT1tF1hyoFnqZOpDmulI+A/HlXfkSuLDw+5phjCs8cULHpppvOaXX41pabEqj+mZcDdRBoXtYszIHwATdr6Ajjk570pLlz8rixmw/wpBjh9UX/yEc+MifYC8vNeIfS3Y92w8xOidjh07AabHgOVMWbdWvjyBl5DfDJK7DzAQDU7373u4tsOB4qH1FliDyNswY7bryuoDfiGiG0hNdAM6G9733vW36Xuwc6AsydoPYiAh4hXnvttctOC3bTRvhDizEEYNG2Bn3FFVeUHSsF6Do8QhryfLzqlycBEvEAWQASjbvfOBbbnzyGaKSWO+GDutdTOO6448rCapcdWYcXORHOuzBMT6XVc6B2b1fPo759+DprzOecc04ZYNYF0cCKAHe6aIQ0jbBXpMIHFB/84AcXzSR2vfxPqp3G+cMf/rD55je/2Vx66aXNscceWxqsKwnZ20GBd6Moe/hpfeT2229fxsWkm7PlxoGHASum/Lrn5E9//lOZ9Xfmopvs9t1333ImYD6KNFfjvqi8rwTAcSjP2Oeh0wgrLYADHeFb4ek0zGJ2vrblvaOxrNh5551XdJaXrGA3HwmXRzydMZsVnXtvV3TWXxX7DniWeOcLPyn2nVKWf/LbLm9nS96KDhBptSs6Db2YnUa/onPk1gpueDIKSv0k/f3333/FIYccUuom+Sl+ru7UZ+dZSor8SD/ykzx1ljmt6Gw1XNE5/HNFZ6lN4R3/bZniN1TKQB47/xJX/Lb98U+2Zplq93YEnyVfaI9bzUxeuODH46vdEa55U+DWEcjixxlob3/728t9Gex0jbmvKvy8EY+Rg0kI/5QJj3Rp8ch1lJ1GWTThuHH3rqtrWxWteVTlFy9itt+lKQ1jh8OOHw7CdnmIfHhPPrxb2+k8PKdrW4fn1rLkOWN3+c0Mjwr/XNvY6R4j8XeAsrzz5/F73Lr3JYNL+Kd2bxfIbAKGSoPpCJcGbPzFbfFWyG+33XZFyAheLyKAEUrdE+vwXvWqV5XB/DQGaSSdXnFMgl0apPIqizE1By848FQDNM7GDC+U6Y1vfGMBx1e/+tWlgQ7DA2HlQfo+JIBUWmn4Ad6Sz06VAuilIHlAMb3jDVn40Ic+VB6TYdlfHbDjT159PNgpE1I+v8VXPjKd+1aU3RPgi3sJMMN/erfIGWZIv0VPYyZk3mkv1uM985nPLGMviSf+8jsm+zbw+e005cRHUNNgE2ZSTWVTLmXSSM2gAjuNEAhFq+XH7zXXXLNclASQ2A1D4bO08Fvcxa4DCslP/CwV4CmPvEg3afut7Nl146OQvJrVlld+8YRc4GEb8NrgVvx07rwN4aFHeCSuWabhJGqGOUeICFeE0Vl5joF3Axfw0sgI2XyNlsAS1PbXty2UEejYTSqrlREF4PHGoLzLerwrHz6GaDp2Tjz+8Y+fc4/bQkzp42U0PNqU9NKVZc9P8rmQNBYSpp2edztFaLi//OUvS9ktSyEbKHJElgJYMZN/bvwrX/H357+u3Ssg2ElDHXhPvAvJ9zSEqd3bBdYiASI8BNZs4Iknnlgu+XFslEMaO+PJcxoMP2n0hJVQnnTSSaVRP+pRjyo5SCNgcifosVtgFscmmPKkTDKlQd/pTncqPPFbOT14xHSL2eabb85pJDzAS8CnwT/hCU8oF+ZYBuKwTRrnqNIpEc3zRx660yELZMgH0+4dGt0uu+xSzsML0OGHWVogza6d3x/96EdlHNh48D777FOuE3V5vHjvfOc7N1YAOFHbvcouoHIjHEq65ccM/qma3gIrPQ3Z5IWN7Aaed9pppzKB0d1NKprFSiATTuO2Ds9JvgS+3eCTHXYoZuwn2VSWlGfbbbdtDjjggGa//fYrx5rrrtH+Dj744GarrbaaA8Bhy9sGGwDjVjB18LnPfa5oRcPGv7rwACtgruw0M6DjHRBbp2gfrYkdx4VZrsNNHlF5Xwl43kORP9qyMUDDK46Hd93jeeedV7rGTmI57bTTClACVOFnHfDwr2p6kaIBzTQmZ+URuFzYzT5anSj9DtAlCY3PCbf8eWfOGm299dYF3MzSavwa44tf/OJyGkqbF21etu37fU9DD2CE3+G9ukld9hvnIP58AC1MTxrSR9J3+g5QcvTY0572tOaud71r8Re/AT7+k3/vSHi9ir333rvsxxXm4Q9/eNNZ9lTk0SXnDrvoLJ9qXvCCF8zNAEfjZc4qzW7JR1DjLmBx4oVxGOflEWjCGcGO8LIz23bxxReXbl3G/OIvX99eDVwc3QI/gqwvaRS9yqBMGrUxUGNZxvJQmwf40m74C820OMUvHx5xSt87N++LxWOanv+JX5rI0fVAyfFQhx122NzxUPzJXyn7yoNoe/GAnR6EcjGBmA+IwwikwXzPe95TbkW79a1vPVfmNn8Xys9JD1e7twusQd0USwrcveAqR0JHYAlcd2MilM5As92KZgjsIvwBPELcS7jTWBaYzbEI1qsMyh0KPwJAnQW2c13AXmETrl8zfO1u8OLOk3rrN85+/dH0pOuRhvTIAsCj4R166KFluVLcxBs+COt/L+If35TNGKi1fW5AI49mfX/Y2dli3FR64e9cGeeJs1c602hXQW+BtUqAfK3NlrmNDAiiNCLCyA8idBYrH3HEEWWAmT1/hBtYxl/xPCN/ChB1Gh/wy75kPCm/Oy29zb9hWSJelMbvPTxvg1H8cR8liTdxK58xOFqYbueGG274Vy20oxLyp+x4wm9mmbvzwx8tkhZnUuyss85qnMrNvMc97lGOnrJelF1IfHgw61RBrw8J0DA8NDakwVhga/D9oIMOKrOwpRF33Np+THJYioAIm5m3NABmBDBm8TgjfwofOuCm7EWj6ZSbXTTmNn9GxRJ1KF4n3xhTfMUrXlHqFRgEBIdJKwDKFCcSbwCcLGTXDfkxkUVe4t4GODxZlVyUsuBcpzy6uCbG1lprrVIekxa0PfJWALTjh4m3qJ1OsZixP3VMbzUVTmgJFiEjNITZb2Mm7lR1DHncCWkEmAboeCizc894xjOKAKZh8d9NSafbflZ/j5ofASGmOgM41lWqL/UmvWHTFFcBo5Ugkw8guXEA6Otf//oCUM7Ds6QksiJP0u5F8+WpnRZ5MgtOHpXFyT7iV0b54bdN88XZ9jPN7xX0+qxdwkQ4Ca9LlXVLHPXDnnD7uhKwzse3/HaUt6UslmbwgwgngesldL2AsM+sTaW3UfGjzWtxqosAgXfDEkCBqQ6HIWmJK9pbZMMklnWBTnohMxtvvHFJJrIQUDKW2a2FzceH7nLl1Bj+dWltaxRv4m6Xa744236m+b2C3mpq17iJhcYExaUyxmM0EHeMWmKQLkMaEjfdDV2NHXbYoezBDehFyGdd6FbD8pE64zW+I3XUricgp/64DwN4ASBpATyL0ztiU2TGR/L4448v72TGomv+C8je+Jq1c5GZbsBbFSOklfKQr8gYO27dcrmquGbN7dp676yVvo/ytgUxdxToPtzrXvcqDYX250njInwEz5op/iKM3D2Vlp4DAQIpAwPaD5Az5ho3dbhQatdree8AnngtOLakicZPw9tiiy1K2mTCeDDZWijgJt/R5Lrl0G8A3M7bQss3beEq6LVqlADmITDIb4IF8Kyzs67MbC0iUATYw91hj+4yiKAxPcLnnd8Iaomk/ll0DuA5/sf0btZz3XXXLYt5s191kIwAHRR5CWj6jWwNs+vD0hSLrml40i3+qYErKbLAbRCKTMVUtpSPnXcAP2i8g+RhUv1W0OtRcwRlTkBXAqH9i294wxvKVil7RwkvQSf8TMtXrJOyXipf2DSIHklUq2XmwH3uc5/mAQ94QDkZx2RTwGqQbCUMk7yod0BjsbptiV/72teaI488snEFJTnxFGAy8NuixNOyqq+LyIE6ptdiLsHNF9zXkjAygZrBaFqc8TpLAXSNdFHih+ZgHV7s0hDEWWn5OZD6SE4s6dDI/X2CAAAJXElEQVTFpZEZU8tHrt/6IhdtSjjyY9be0fcWo2dZCpmRh16UsL3cFmrXXd6FxjON4SroddUqYWkLtG7rF77whSLALoy+y13uUr7oGgw3gGhWjuACPBSg9FXXCNrxdSVXfy4RB7qBJfXi45V6YvZLARXxiJtpHd6JndN2AKl1eJELgEdO4m+QdPrNT7e/7vJ2u8/y7wp6rdonyG2BJDif/exny1fbVrO73/3uZdGnpQV//tOfm/e///1F+9t7773L4lCCLw6U2bP8biVTX8eAA+rZh0udeXyYAmT9Zi9ARk4cHuBeWvHssccezQYbbFDeuYmXvXdaZd77Taf6Gy0HKuj14GeAipA6VMB4nhX8iKBrMB7HANH20qXlP0/8+V1p/DgA6FA+Tt7nq6vIQ8CR37wLY9jDtjIandN2NtpooxJv0kjcfhseSXzsKy09B649MLH06Y9VigSYQEYoXb+nq+JgxxCwA2i+1vY4WouXWTLh03D4Q/md8NUcDw6ol9vf/vbNYx/72OYTn/jE3IVMvXKnvpELd4QzYZH6tXbzhBNOKBNZjguz+Z9soMhRZCD2+V081T9LzoEKei2WR7gJpa/32WefXTS9Rz/60QXofKk9Edp0U/yOgLeiq69jzgHjs50rFst4rS1pqdfubAO44tYZuSAjPnLq2ywtwHSyiS6t+BC/kZP54uxOo/5eOg5U0GvxOsJNUF1DSHA37Gw389vs7fnnn1/GZARhR/ADdvndim7OrW1X38eDA+rTR8vHDYhFW++Vu9QtM+96AGZoTz311ObAAw8se125ofgRf+QjZq/4q93ScqCCXovfQM5CVV9uR3jbI+l2M4d+EnJ2TklG/BJqj68/oY7QJ8ru37Gv5vJzIGNruXFMjlYFTAEyfqzFPOWUU8pidddUupe2Xf/kobvuu38vPwdmNwd1IqNV9wDMLNxTn/rU0u1x2Qo75P7R1772tXMNgz3gQxnfKT/qn4nggPozNheg87ELMLUBLO5tOx+/L3/5y82b3/zmsrNDgbnHD3nwnsXKE8GQGcrkzIJexu8IPwFF7MzGsrOo1DsBNjubNXhpGPzzV2kyOaCu1Z/6zDl0gI8GyK4bsMiIdXhOS9El/pd/+Zfmlre85dzYnfiEDYlDl7nS+HFgjU5l9l4mPn55HWmOCDUCasZ30O9+97tysKQbsxwoYFFyND8NA6vaoFcC1T8TzQEfNvdUGJ/bu7Pe0h5Z6/fUsyfaPNmg6QM6y1I222yzIg/5aAK9CnKTIQozq6pEWAGZLzSBdWXehRdeWO4WMJ5nNs51hBn/UaX8z+h3YjIkus9cph5p8FtuuWW5U0L9B/BEA/AAH83uxM5OC9q/5UsAL24BxQp4fTJ+DLzNrP5NmAkqoaX1+ZKffvrp5co8J6mw32abbUoV8ZvukMbid6XJ5oA6VJc0fR9AMsAudZsPm4Mk7KGlEbqY3YnEZIE7E0iigGDCTzZ3pjv3M6vp5QvNtN7K4aDf+973yomz2WERQWZqGKgK9XQ0iHy8AFfAzhYx9nncWkYuXA3wyEc+stl0001L4QEl7d9DNhJXlY3JkI2ZBT0CSlgJ8Je+9KUyXqOb8/nPf75c0RcNoBvw0kAmo3prLufjgHrNPlh17Qlo+cBZopSxPreWGeoIwJEbxD+/VSbm4/J42s9s99YXXvfWvlpdGAdKuj7vec97XjkolHsEOgI+nlVYc7UQDgTohAVi66+/fvnY0e7UvS2I3/3ud8sl7s7DizZHZgJ6C0m3hll+Dsws6BF64ziO8z733HObL37xi+W3Losvd2Z3fd2jAaS6/K6CH25MrhkgcyexO2L33XffsizF+O55551XTk2xeJkMpCurtAkXc3I5MJs5n1nQA1yWqtgw7kw1JruAnHdffJTxvNkUkekstfpNHatfa/D+8Ic/FKDbfffdm0MOOaSch5dZ2Wj+MXFF+EqTx4GZBT2A9773va85sbMUQfd2zz33LF9wDcBXXQPwlSfkgLDSdHGgraU5Esp6zEsvvbRxuETupTVji4BbhjrIQv0ITrYszPTi5K9+9avlEAFV6IueZQttwY7mN9nVXHPfzQFAFuBTx4Y7mNttt1252hOwcQ/xH7lIuLhVc7I4MLOgF4FOF6X7d6qxCng4Mf1muq7q3AMIK00fB2Z6yUob8AJ6qeIIfn5Xc/o5EHlgBvBod5WmiwMzq+kZ0yPY7W5MhF4Ve+8Gwumq+lqabg6k/tV73rv91N+Tz4GZBT1Vl694BDzm5FdrLcFCOBB5yIcQ+NVJi4VwcrzDzDToRZOrYHddIZ1VbUe522WvsnFd2Zh0m5kGvUmvvGHyr2Fn4F48Gncae7dZG/4wnK5hx40DMzuRMW4VsRz5AWYBO2Oc6coBw1AFvHCimtPCgQp601KTA5aDNoeMY3m3EPewww5rvv3tbxfwy/hW/A0YffVeOTC2HKigN7ZVs7gZy2C9GWwnihx99NHNO97xjubyyy8vs9qZ2c4e5MXNTY29cmDpOFBBb+l4PVYp6cLqutLonBjsRBFb73RzHbmE+LElr1LlwDRxoILeNNXmAGWhyXkA3yabbNIcccQR5SpDdoBOtzZjfANEW71WDow9ByrojX0VLU0G64TF0vC5prL8HKigt/x1sGw5qJMUy8b6mvAycqCC3jIyf7mTrtrdctdATX85ODCz5+ktB7PHOc1ura8C4jjXVs3bMByooDcM9yY4LJALsGUmN8XJGj2/62RGuFLNaeFA7d5OS00OWI4AHvC78sorm+OPP76Y7v61fAXFz4BRV++VA2PNgQp6Y109i5c52l00PMflA76ddtqpHJ3/q1/9am6tXne3d/FyVGOuHFgaDtQDB5aGz2OXCsCzJg+otYEt3dk//vGPjbsj7MjI5ThjV4iaocqBBXCggt4CmDYNQQJ0TN1YuzAsSo72x87YXhYwT0OZaxkqB3Cggt6MygGwixbXHrsDdAG8aH1t9xllVy32FHGggt4UVWYtSuVA5cDqOVAnMlbPo+qjcqByYIo4UEFviiqzFqVyoHJg9RyooLd6HlUflQOVA1PEgQp6U1SZtSiVA5UDq+dABb3V86j6qByoHJgiDlTQm6LKrEWpHKgcWD0HKuitnkfVR+VA5cAUcaCC3hRVZi1K5UDlwOo5UEFv9TyqPioHKgemiAMV9KaoMmtRKgcqB1bPgf8Hv+2MN5Gj8gkAAAAASUVORK5CYII=;" vertex="1" parent="7">
                    <mxGeometry x="400" y="80" width="317" height="226" as="geometry"/>
                </mxCell>
                <mxCell id="13" value="Caclulate" style="rounded=1;whiteSpace=wrap;html=1;" vertex="1" parent="7">
                    <mxGeometry x="20" y="340" width="70" height="20" as="geometry"/>
                </mxCell>
            </root>
        </mxGraphModel>
    </diagram>
</mxfile>